<svg width="55" height="121" viewBox="0 0 55 121" fill="none" xmlns="http://www.w3.org/2000/svg">
<path d="M15.1303 114.81C13.86 114.343 12.3342 115.325 11.7226 117.002C11.1114 118.68 11.6452 120.417 12.9156 120.884C14.1863 121.35 15.7117 120.369 16.3233 118.692C16.9345 117.015 16.4007 115.277 15.1299 114.81H15.1303Z" fill="#CCE1E4"/>
<path d="M19.958 112.135C18.6288 112.251 17.6743 113.766 17.8254 115.522C17.9769 117.276 19.1767 118.605 20.5059 118.49C21.8347 118.374 22.7892 116.858 22.6381 115.103C22.4866 113.349 21.2867 112.02 19.958 112.135Z" fill="#CCE1E4"/>
<path d="M9.60736 112.195C8.44096 111.507 6.76488 112.198 5.86318 113.737C4.96189 115.278 5.17663 117.084 6.34344 117.771C7.50985 118.459 9.18633 117.767 10.0876 116.228C10.9889 114.687 10.7738 112.882 9.60736 112.194V112.195Z" fill="#CCE1E4"/>
<path d="M3.35997 110.37C4.11622 111.472 5.90108 111.558 7.3467 110.559C8.79271 109.56 9.35154 107.857 8.5957 106.754C7.83945 105.652 6.05459 105.566 4.60897 106.565C3.16335 107.563 2.60412 109.266 3.35997 110.369V110.37Z" fill="#CCE1E4"/>
<path d="M11.1259 110.161C11.2701 111.163 11.8821 112.077 12.86 112.54C13.8378 113.003 14.9297 112.896 15.7915 112.371C16.7444 111.791 17.3536 111.033 18.1743 110.702C18.9946 110.37 21.2928 111.357 22.7235 108.749C23.7339 106.908 22.8065 104.58 20.912 103.682C19.472 103.001 18.3326 103.077 17.4958 102.681C16.6594 102.285 15.9934 101.353 14.5534 100.672C12.6589 99.7744 10.2786 100.536 9.50421 102.49C8.40791 105.256 10.6283 106.408 10.895 107.255C11.1618 108.101 10.9659 109.055 11.1255 110.161H11.1259Z" fill="#CCE1E4"/>
<path d="M12.2221 81.3503C10.9517 80.8833 9.42594 81.865 8.81433 83.5422C8.20313 85.2194 8.73697 86.9572 10.0073 87.4238C11.2781 87.89 12.8035 86.9091 13.4151 85.2315C14.0263 83.5543 13.4924 81.8165 12.2217 81.3503H12.2221Z" fill="#CCE1E4"/>
<path d="M17.0497 78.6751C15.7205 78.7908 14.7661 80.3062 14.9171 82.0615C15.0686 83.8159 16.2685 85.1445 17.5977 85.0297C18.9264 84.9137 19.8809 83.3978 19.7298 81.643C19.5783 79.8886 18.3785 78.5599 17.0497 78.6751Z" fill="#CCE1E4"/>
<path d="M6.6991 78.7347C5.5327 78.0465 3.85662 78.7375 2.95493 80.2772C2.05363 81.8181 2.26838 83.6235 3.43519 84.3113C4.60159 84.9986 6.27807 84.3072 7.17936 82.7675C8.08066 81.227 7.86551 79.4216 6.6991 78.7342V78.7347Z" fill="#CCE1E4"/>
<path d="M0.451722 76.9094C1.20797 78.012 2.99283 78.0973 4.43845 77.099C5.88447 76.1003 6.44329 74.3972 5.68745 73.2942C4.9312 72.1916 3.14634 72.1063 1.70072 73.1046C0.255105 74.1029 -0.304124 75.8059 0.451722 76.909V76.9094Z" fill="#CCE1E4"/>
<path d="M8.21765 76.7012C8.36189 77.7028 8.9739 78.6166 9.95175 79.0795C10.9296 79.5425 12.0215 79.4358 12.8833 78.9109C13.8361 78.3307 14.4453 77.5726 15.266 77.2414C16.0863 76.9103 18.3845 77.8969 19.8152 75.2893C20.8257 73.4475 19.8982 71.1194 18.0038 70.2221C16.5638 69.5404 15.4244 69.6164 14.5875 69.2206C13.7511 68.8247 13.0851 67.8932 11.6451 67.2114C9.7507 66.3142 7.37035 67.0756 6.59597 69.0293C5.49967 71.7954 7.72007 72.9482 7.98679 73.7945C8.25351 74.6403 8.0577 75.5946 8.21725 76.7012H8.21765Z" fill="#CCE1E4"/>
<path d="M46.8774 48.8528C45.607 48.3858 44.0812 49.3675 43.4696 51.0447C42.8584 52.7219 43.3922 54.4598 44.6626 54.9264C45.9334 55.3926 47.4587 54.4116 48.0704 52.7341C48.6816 51.0569 48.1477 49.319 46.877 48.8528H46.8774Z" fill="#CCE1E4"/>
<path d="M51.705 46.1777C50.3758 46.2933 49.4213 47.8088 49.5724 49.564C49.7239 51.3184 50.9238 52.6471 52.2529 52.5323C53.5817 52.4162 54.5362 50.9004 54.3851 49.1455C54.2336 47.3911 53.0338 46.0625 51.705 46.1777Z" fill="#CCE1E4"/>
<path d="M41.3544 46.2371C40.188 45.5489 38.5119 46.2399 37.6102 47.7796C36.7089 49.3206 36.9237 51.1259 38.0905 51.8137C39.2569 52.5011 40.9333 51.8097 41.8346 50.27C42.7359 48.7294 42.5208 46.9241 41.3544 46.2367V46.2371Z" fill="#CCE1E4"/>
<path d="M35.107 44.4119C35.8632 45.5146 37.6481 45.5999 39.0937 44.6016C40.5397 43.6029 41.0986 41.8998 40.3427 40.7968C39.5865 39.6941 37.8016 39.6088 36.356 40.6071C34.9104 41.6054 34.3511 43.3085 35.107 44.4115V44.4119Z" fill="#CCE1E4"/>
<path d="M42.8729 44.2038C43.0172 45.2053 43.6292 46.1191 44.607 46.5821C45.5849 47.0451 46.6767 46.9383 47.5385 46.4135C48.4914 45.8333 49.1006 45.0751 49.9213 44.744C50.7416 44.4128 53.0398 45.3994 54.4705 42.7918C55.481 40.9501 54.5535 38.6219 52.659 37.7247C51.2191 37.043 50.0796 37.119 49.2428 36.7232C48.4064 36.3273 47.7404 35.3957 46.3004 34.714C44.406 33.8168 42.0256 34.5782 41.2512 36.5319C40.1549 39.298 42.3753 40.4507 42.6421 41.297C42.9088 42.1429 42.713 43.0971 42.8725 44.2038H42.8729Z" fill="#CCE1E4"/>
<path d="M43.9691 15.3925C42.6988 14.9255 41.173 15.9072 40.5614 17.5844C39.9502 19.2616 40.484 20.9994 41.7544 21.466C43.0251 21.9322 44.5505 20.9513 45.1621 19.2737C45.7733 17.5965 45.2395 15.8587 43.9687 15.3925H43.9691Z" fill="#CCE1E4"/>
<path d="M48.7967 12.7174C47.4676 12.833 46.5131 14.3485 46.6642 16.1037C46.8157 17.8581 48.0155 19.1868 49.3447 19.0719C50.6735 18.9559 51.6279 17.44 51.4769 15.6852C51.3254 13.9308 50.1255 12.6021 48.7967 12.7174Z" fill="#CCE1E4"/>
<path d="M38.4461 12.7768C37.2797 12.0886 35.6037 12.7796 34.702 14.3193C33.8007 15.8602 34.0154 17.6656 35.1822 18.3534C36.3486 19.0408 38.0251 18.3493 38.9264 16.8096C39.8277 15.2691 39.6125 13.4637 38.4461 12.7764V12.7768Z" fill="#CCE1E4"/>
<path d="M32.1988 10.9516C32.955 12.0542 34.7399 12.1395 36.1855 11.1412C37.6315 10.1425 38.1903 8.43946 37.4345 7.33643C36.6782 6.23381 34.8934 6.14849 33.4478 7.1468C32.0021 8.14511 31.4429 9.84817 32.1988 10.9512V10.9516Z" fill="#CCE1E4"/>
<path d="M39.9647 10.7435C40.1089 11.745 40.7209 12.6588 41.6988 13.1218C42.6766 13.5847 43.7685 13.478 44.6303 12.9532C45.5832 12.3729 46.1924 11.6148 47.0131 11.2837C47.8334 10.9525 50.1315 11.9391 51.5623 9.33152C52.5727 7.48976 51.6452 5.16159 49.7508 4.26437C48.3108 3.58266 47.1714 3.65867 46.3346 3.26282C45.4982 2.86698 44.8322 1.93539 43.3922 1.25367C41.4977 0.356449 39.1174 1.11782 38.343 3.07157C37.2467 5.83764 39.4671 6.99041 39.7338 7.83668C40.0005 8.68256 39.8047 9.63679 39.9643 10.7435H39.9647Z" fill="#CCE1E4"/>
</svg>
