<svg width="55" height="120" viewBox="0 0 55 120" fill="none" xmlns="http://www.w3.org/2000/svg">
<path d="M15.1303 6.18335C13.86 6.64989 12.3342 5.66914 11.7226 3.99363C11.1114 2.31812 11.6452 0.582016 12.9156 0.115877C14.1863 -0.349857 15.7117 0.630084 16.3233 2.306C16.9345 3.98151 16.4007 5.71761 15.1299 6.18335H15.1303Z" fill="#CCE1E4"/>
<path d="M19.958 8.85585C18.6288 8.74032 17.6743 7.22638 17.8254 5.47291C17.9769 3.72025 19.1767 2.39293 20.5059 2.50764C21.8347 2.62357 22.7892 4.13791 22.6381 5.89098C22.4866 7.64364 21.2867 8.97097 19.958 8.85585Z" fill="#CCE1E4"/>
<path d="M9.60736 8.79637C8.44096 9.48386 6.76488 8.79354 5.86318 7.25537C4.96189 5.71598 5.17663 3.91242 6.34344 3.22533C7.50985 2.53865 9.18633 3.22937 10.0876 4.76755C10.9889 6.30653 10.7738 8.11009 9.60736 8.79677V8.79637Z" fill="#CCE1E4"/>
<path d="M3.35997 10.6198C4.11622 9.51825 5.90108 9.43302 7.3467 10.4303C8.79271 11.428 9.35154 13.1294 8.5957 14.2313C7.83945 15.3329 6.05459 15.4181 4.60897 14.4208C3.16335 13.4235 2.60412 11.7221 3.35997 10.6202V10.6198Z" fill="#CCE1E4"/>
<path d="M11.1259 10.8278C11.2701 9.8273 11.8821 8.91441 12.86 8.45191C13.8378 7.9894 14.9297 8.09604 15.7915 8.62035C16.7444 9.19999 17.3536 9.95736 18.1743 10.2882C18.9946 10.619 21.2928 9.63341 22.7235 12.2384C23.7339 14.0783 22.8065 16.4041 20.912 17.3005C19.472 17.9815 18.3326 17.9055 17.4958 18.301C16.6594 18.6964 15.9934 19.6271 14.5534 20.3081C12.6589 21.2045 10.2786 20.4439 9.50421 18.4921C8.40791 15.7288 10.6283 14.5771 10.895 13.7317C11.1618 12.8867 10.9659 11.9334 11.1255 10.8278H11.1259Z" fill="#CCE1E4"/>
<path d="M12.2221 39.6101C10.9517 40.0766 9.42594 39.0959 8.81433 37.4204C8.20313 35.7449 8.73697 34.0088 10.0073 33.5426C11.2781 33.0769 12.8035 34.0568 13.4151 35.7328C14.0263 37.4083 13.4924 39.1444 12.2217 39.6101H12.2221Z" fill="#CCE1E4"/>
<path d="M17.0497 42.2826C15.7205 42.1671 14.7661 40.6531 14.9171 38.8997C15.0686 37.147 16.2685 35.8197 17.5977 35.9344C18.9264 36.0503 19.8809 37.5647 19.7298 39.3177C19.5783 41.0704 18.3785 42.3977 17.0497 42.2826Z" fill="#CCE1E4"/>
<path d="M6.6991 42.2231C5.5327 42.9106 3.85662 42.2203 2.95493 40.6821C2.05363 39.1427 2.26838 37.3392 3.43519 36.6521C4.60159 35.9654 6.27807 36.6561 7.17936 38.1943C8.08066 39.7333 7.86551 41.5368 6.6991 42.2235V42.2231Z" fill="#CCE1E4"/>
<path d="M0.451722 44.0465C1.20797 42.945 2.99283 42.8598 4.43845 43.8571C5.88447 44.8548 6.44329 46.5562 5.68745 47.6581C4.9312 48.7596 3.14634 48.8448 1.70072 47.8475C0.255105 46.8502 -0.304124 45.1489 0.451722 44.0469V44.0465Z" fill="#CCE1E4"/>
<path d="M8.21765 44.2546C8.36189 43.2541 8.9739 42.3412 9.95175 41.8787C10.9296 41.4162 12.0215 41.5228 12.8833 42.0471C13.8361 42.6267 14.4453 43.3841 15.266 43.7149C16.0863 44.0458 18.3845 43.0602 19.8152 45.6651C20.8257 47.505 19.8982 49.8309 18.0038 50.7272C16.5638 51.4082 15.4244 51.3323 14.5875 51.7278C13.7511 52.1232 13.0851 53.0539 11.6451 53.7349C9.7507 54.6312 7.37035 53.8706 6.59597 51.9188C5.49967 49.1555 7.72007 48.0039 7.98679 47.1585C8.25351 46.3134 8.0577 45.3602 8.21725 44.2546H8.21765Z" fill="#CCE1E4"/>
<path d="M46.8774 72.0752C45.607 72.5417 44.0812 71.561 43.4696 69.8855C42.8584 68.21 43.3922 66.4739 44.6626 66.0077C45.9334 65.542 47.4587 66.5219 48.0704 68.1978C48.6816 69.8734 48.1477 71.6095 46.877 72.0752H46.8774Z" fill="#CCE1E4"/>
<path d="M51.705 74.7477C50.3758 74.6322 49.4213 73.1182 49.5724 71.3648C49.7239 69.6121 50.9238 68.2848 52.2529 68.3995C53.5817 68.5154 54.5362 70.0298 54.3851 71.7828C54.2336 73.5355 53.0338 74.8628 51.705 74.7477Z" fill="#CCE1E4"/>
<path d="M41.3544 74.6882C40.188 75.3757 38.5119 74.6854 37.6102 73.1472C36.7089 71.6078 36.9237 69.8043 38.0905 69.1172C39.2569 68.4305 40.9333 69.1212 41.8346 70.6594C42.7359 72.1984 42.5208 74.0019 41.3544 74.6886V74.6882Z" fill="#CCE1E4"/>
<path d="M35.107 76.5116C35.8632 75.4101 37.6481 75.3249 39.0937 76.3222C40.5397 77.3199 41.0986 79.0213 40.3427 80.1232C39.5865 81.2247 37.8016 81.3099 36.356 80.3126C34.9104 79.3153 34.3511 77.6139 35.107 76.512V76.5116Z" fill="#CCE1E4"/>
<path d="M42.8729 76.7197C43.0172 75.7191 43.6292 74.8063 44.607 74.3438C45.5849 73.8812 46.6767 73.9879 47.5385 74.5122C48.4914 75.0918 49.1006 75.8492 49.9213 76.18C50.7416 76.5109 53.0398 75.5253 54.4705 78.1302C55.481 79.9701 54.5535 82.296 52.659 83.1923C51.2191 83.8733 50.0796 83.7974 49.2428 84.1928C48.4064 84.5883 47.7404 85.519 46.3004 86.2C44.406 87.0963 42.0256 86.3357 41.2512 84.3839C40.1549 81.6206 42.3753 80.469 42.6421 79.6236C42.9088 78.7785 42.713 77.8252 42.8725 76.7197H42.8729Z" fill="#CCE1E4"/>
<path d="M43.9691 105.502C42.6988 105.968 41.173 104.988 40.5614 103.312C39.9502 101.637 40.484 99.9006 41.7544 99.4345C43.0251 98.9687 44.5505 99.9487 45.1621 101.625C45.7733 103.3 45.2395 105.036 43.9687 105.502H43.9691Z" fill="#CCE1E4"/>
<path d="M48.7967 108.174C47.4676 108.059 46.5131 106.545 46.6642 104.792C46.8157 103.039 48.0155 101.712 49.3447 101.826C50.6735 101.942 51.6279 103.457 51.4769 105.21C51.3254 106.962 50.1255 108.29 48.7967 108.174Z" fill="#CCE1E4"/>
<path d="M38.4461 108.115C37.2797 108.802 35.6037 108.112 34.702 106.574C33.8007 105.035 34.0154 103.231 35.1822 102.544C36.3486 101.857 38.0251 102.548 38.9264 104.086C39.8277 105.625 39.6125 107.429 38.4461 108.115V108.115Z" fill="#CCE1E4"/>
<path d="M32.1988 109.938C32.955 108.837 34.7399 108.752 36.1855 109.749C37.6315 110.747 38.1903 112.448 37.4345 113.55C36.6782 114.651 34.8934 114.737 33.4478 113.739C32.0021 112.742 31.4429 111.041 32.1988 109.939V109.938Z" fill="#CCE1E4"/>
<path d="M39.9647 110.146C40.1089 109.146 40.7209 108.233 41.6988 107.771C42.6766 107.308 43.7685 107.415 44.6303 107.939C45.5832 108.519 46.1924 109.276 47.0131 109.607C47.8334 109.938 50.1315 108.952 51.5623 111.557C52.5727 113.397 51.6452 115.723 49.7508 116.619C48.3108 117.3 47.1714 117.224 46.3346 117.62C45.4982 118.015 44.8322 118.946 43.3922 119.627C41.4977 120.523 39.1174 119.762 38.343 117.811C37.2467 115.047 39.4671 113.896 39.7338 113.05C40.0005 112.205 39.8047 111.252 39.9643 110.146H39.9647Z" fill="#CCE1E4"/>
</svg>
