<svg width="315" height="86" viewBox="0 0 315 86" fill="none" xmlns="http://www.w3.org/2000/svg">
<path d="M67.4512 48.926C68.9946 46.2792 72.8187 46.2792 74.3621 48.926L86.2047 69.2351C87.7596 71.9017 85.8361 75.25 82.7492 75.25H59.0641C55.9772 75.25 54.0537 71.9017 55.6086 69.2351L67.4512 48.926Z" fill="#CCE1E4"/>
<path d="M18.2592 48.926C19.8026 46.2792 23.6267 46.2792 25.1701 48.926L37.0127 69.2351C38.5676 71.9017 36.6441 75.25 33.5572 75.25H9.87205C6.78517 75.25 4.86165 71.9017 6.4166 69.2351L18.2592 48.926Z" fill="#CCE1E4"/>
<path d="M43.3014 37.0743C44.8448 39.7211 48.6689 39.7211 50.2123 37.0743L62.0549 16.7651C63.6098 14.0985 61.6863 10.7502 58.5995 10.7502L34.9143 10.7502C31.8274 10.7502 29.9039 14.0985 31.4588 16.7651L43.3014 37.0743Z" fill="#CCE1E4"/>
<path d="M92.6071 37.0743C94.1505 39.7211 97.9746 39.7211 99.518 37.0743L111.361 16.7651C112.916 14.0985 110.992 10.7502 107.905 10.7502L84.2199 10.7502C81.1331 10.7502 79.2096 14.0985 80.7645 16.7651L92.6071 37.0743Z" fill="#CCE1E4"/>
<path d="M141.913 37.0743C143.456 39.7211 147.28 39.7211 148.824 37.0743L160.666 16.7651C162.221 14.0985 160.298 10.7502 157.211 10.7502L133.526 10.7502C130.439 10.7502 128.515 14.0985 130.07 16.7651L141.913 37.0743Z" fill="#CCE1E4"/>
<path d="M116.757 48.926C118.3 46.2792 122.124 46.2792 123.668 48.926L135.51 69.2351C137.065 71.9017 135.142 75.25 132.055 75.25H108.37C105.283 75.25 103.359 71.9017 104.914 69.2351L116.757 48.926Z" fill="#CCE1E4"/>
<path d="M166.176 48.926C167.72 46.2792 171.544 46.2792 173.087 48.926L184.93 69.2351C186.485 71.9017 184.561 75.25 181.474 75.25H157.789C154.702 75.25 152.779 71.9017 154.334 69.2351L166.176 48.926Z" fill="#CCE1E4"/>
<path d="M216.374 48.9257C217.918 46.2789 221.742 46.2789 223.285 48.9257L235.128 69.2349C236.683 71.9015 234.759 75.2498 231.672 75.2498H207.987C204.9 75.2498 202.977 71.9015 204.532 69.2349L216.374 48.9257Z" fill="#CCE1E4"/>
<path d="M191.219 37.074C192.762 39.7208 196.586 39.7208 198.129 37.074L209.972 16.7649C211.527 14.0983 209.603 10.75 206.517 10.75L182.831 10.75C179.745 10.75 177.821 14.0983 179.376 16.7649L191.219 37.074Z" fill="#CCE1E4"/>
<path d="M289.83 37.074C291.373 39.7208 295.198 39.7208 296.741 37.074L308.583 16.7649C310.138 14.0983 308.215 10.75 305.128 10.75L281.443 10.75C278.356 10.75 276.432 14.0983 277.987 16.7649L289.83 37.074Z" fill="#CCE1E4"/>
<path d="M240.638 37.074C242.181 39.7208 246.005 39.7208 247.549 37.074L259.391 16.7649C260.946 14.0983 259.023 10.75 255.936 10.75L232.251 10.75C229.164 10.75 227.24 14.0983 228.795 16.7649L240.638 37.074Z" fill="#CCE1E4"/>
<path d="M265.68 48.9257C267.224 46.2789 271.048 46.2789 272.591 48.9257L284.434 69.2349C285.989 71.9015 284.065 75.2498 280.978 75.2498H257.293C254.206 75.2498 252.283 71.9015 253.838 69.2349L265.68 48.9257Z" fill="#CCE1E4"/>
<path d="M240.524 37.074C242.068 39.7208 245.892 39.7208 247.435 37.074L259.278 16.7649C260.833 14.0983 258.909 10.75 255.822 10.75L232.137 10.75C229.05 10.75 227.127 14.0983 228.682 16.7649L240.524 37.074Z" fill="#CCE1E4"/>
</svg>
