<svg width="315" height="86" viewBox="0 0 315 86" fill="none" xmlns="http://www.w3.org/2000/svg">
<path d="M67.4511 37.074C68.9945 39.7208 72.8186 39.7208 74.362 37.074L86.2046 16.7649C87.7595 14.0983 85.836 10.75 82.7491 10.75L59.0639 10.75C55.9771 10.75 54.0535 14.0983 55.6085 16.7649L67.4511 37.074Z" fill="#CCE1E4"/>
<path d="M18.2592 37.074C19.8026 39.7208 23.6267 39.7208 25.1701 37.074L37.0127 16.7649C38.5676 14.0983 36.6441 10.75 33.5572 10.75L9.87205 10.75C6.78517 10.75 4.86165 14.0983 6.4166 16.7649L18.2592 37.074Z" fill="#CCE1E4"/>
<path d="M43.3014 48.9257C44.8448 46.2789 48.6689 46.2789 50.2123 48.9257L62.0549 69.2349C63.6098 71.9015 61.6863 75.2498 58.5995 75.2498H34.9143C31.8274 75.2498 29.9039 71.9015 31.4588 69.2349L43.3014 48.9257Z" fill="#CCE1E4"/>
<path d="M92.6071 48.9257C94.1505 46.2789 97.9746 46.2789 99.518 48.9257L111.361 69.2349C112.916 71.9015 110.992 75.2498 107.905 75.2498H84.2199C81.1331 75.2498 79.2096 71.9015 80.7645 69.2349L92.6071 48.9257Z" fill="#CCE1E4"/>
<path d="M141.913 48.9257C143.456 46.2789 147.28 46.2789 148.824 48.9257L160.666 69.2349C162.221 71.9015 160.298 75.2498 157.211 75.2498H133.526C130.439 75.2498 128.515 71.9015 130.07 69.2349L141.913 48.9257Z" fill="#CCE1E4"/>
<path d="M116.757 37.074C118.3 39.7208 122.124 39.7208 123.668 37.074L135.51 16.7649C137.065 14.0983 135.142 10.75 132.055 10.75L108.37 10.75C105.283 10.75 103.359 14.0983 104.914 16.7649L116.757 37.074Z" fill="#CCE1E4"/>
<path d="M166.176 37.074C167.72 39.7208 171.544 39.7208 173.087 37.074L184.93 16.7649C186.485 14.0983 184.561 10.75 181.474 10.75L157.789 10.75C154.702 10.75 152.779 14.0983 154.334 16.7649L166.176 37.074Z" fill="#CCE1E4"/>
<path d="M216.374 37.0743C217.918 39.7211 221.742 39.7211 223.285 37.0743L235.128 16.7651C236.683 14.0985 234.759 10.7502 231.672 10.7502L207.987 10.7502C204.9 10.7502 202.977 14.0985 204.532 16.7651L216.374 37.0743Z" fill="#CCE1E4"/>
<path d="M191.218 48.926C192.762 46.2792 196.586 46.2792 198.129 48.926L209.972 69.2351C211.527 71.9017 209.603 75.25 206.516 75.25H182.831C179.744 75.25 177.821 71.9017 179.376 69.2351L191.218 48.926Z" fill="#CCE1E4"/>
<path d="M289.83 48.926C291.373 46.2792 295.198 46.2792 296.741 48.926L308.583 69.2351C310.138 71.9017 308.215 75.25 305.128 75.25H281.443C278.356 75.25 276.432 71.9017 277.987 69.2351L289.83 48.926Z" fill="#CCE1E4"/>
<path d="M240.638 48.926C242.181 46.2792 246.005 46.2792 247.549 48.926L259.391 69.2351C260.946 71.9017 259.023 75.25 255.936 75.25H232.251C229.164 75.25 227.24 71.9017 228.795 69.2351L240.638 48.926Z" fill="#CCE1E4"/>
<path d="M265.68 37.0743C267.223 39.7211 271.048 39.7211 272.591 37.0743L284.434 16.7651C285.989 14.0985 284.065 10.7502 280.978 10.7502L257.293 10.7502C254.206 10.7502 252.283 14.0985 253.838 16.7651L265.68 37.0743Z" fill="#CCE1E4"/>
<path d="M240.524 48.926C242.068 46.2792 245.892 46.2792 247.435 48.926L259.278 69.2351C260.833 71.9017 258.909 75.25 255.822 75.25H232.137C229.05 75.25 227.127 71.9017 228.682 69.2351L240.524 48.926Z" fill="#CCE1E4"/>
</svg>
