<svg width="39" height="38" viewBox="0 0 39 38" fill="none" xmlns="http://www.w3.org/2000/svg">
<path d="M32.1749 11.1792H28.4387C28.9733 10.4016 29.2705 9.4854 29.2942 8.54201C29.3156 7.82333 29.1897 7.10788 28.9245 6.43961C28.6592 5.77133 28.2601 5.16435 27.7517 4.65595C27.2433 4.14754 26.6363 3.74845 25.968 3.48318C25.2998 3.21792 24.5843 3.09208 23.8656 3.1134C23.2018 3.12757 22.5481 3.27883 21.9456 3.55767C21.343 3.83652 20.8046 4.23693 20.3642 4.73377C20.0393 5.10434 19.75 5.50458 19.5 5.92925C19.25 5.50458 18.9607 5.10434 18.6358 4.73377C18.1954 4.23693 17.657 3.83652 17.0544 3.55767C16.4519 3.27883 15.7982 3.12757 15.1344 3.1134C14.4157 3.09208 13.7002 3.21792 13.032 3.48318C12.3637 3.74845 11.7567 4.14754 11.2483 4.65595C10.7399 5.16435 10.3408 5.77133 10.0755 6.43961C9.81027 7.10788 9.68444 7.82333 9.70576 8.54201C9.72947 9.4854 10.0267 10.4016 10.5613 11.1792H6.82511C6.06111 11.1792 5.3284 11.4827 4.78817 12.023C4.24794 12.5632 3.94445 13.2959 3.94445 14.0599V18.669C3.94431 19.333 4.17362 19.9768 4.59357 20.4912C5.01352 21.0056 5.59831 21.3592 6.24897 21.492V30.1916C6.24897 30.9556 6.55247 31.6883 7.0927 32.2285C7.63293 32.7688 8.36563 33.0723 9.12963 33.0723H29.8704C30.6344 33.0723 31.3671 32.7688 31.9073 32.2285C32.4475 31.6883 32.751 30.9556 32.751 30.1916V21.492C33.4017 21.3592 33.9865 21.0056 34.4064 20.4912C34.8264 19.9768 35.0557 19.333 35.0556 18.669V14.0599C35.0556 13.2959 34.7521 12.5632 34.2118 12.023C33.6716 11.4827 32.9389 11.1792 32.1749 11.1792ZM31.5988 18.0928H21.2284V14.636H31.5988V18.0928ZM22.9568 7.02678C23.0843 6.88527 23.2397 6.77166 23.4132 6.69309C23.5867 6.61451 23.7746 6.57267 23.965 6.57019H24.0154C24.2592 6.5695 24.5006 6.61784 24.7253 6.71234C24.9499 6.80683 25.1533 6.94555 25.3233 7.12023C25.4933 7.29492 25.6264 7.50201 25.7147 7.72919C25.8031 7.95637 25.8448 8.19899 25.8375 8.44262C25.835 8.63308 25.7931 8.82096 25.7146 8.99447C25.636 9.16798 25.5224 9.32336 25.3809 9.45085C24.387 10.3323 22.7523 10.7846 21.4012 11.0006C21.6173 9.65538 22.0695 8.02061 22.9568 7.02678ZM13.6955 7.10312C14.0374 6.76489 14.4979 6.57365 14.9788 6.57019H15.035C15.2254 6.57267 15.4133 6.61451 15.5868 6.69309C15.7603 6.77166 15.9157 6.88527 16.0432 7.02678C16.9247 8.02061 17.377 9.65394 17.5916 11.0035C16.2521 10.786 14.6029 10.3338 13.6191 9.45085C13.4776 9.32336 13.364 9.16798 13.2854 8.99447C13.2069 8.82096 13.165 8.63308 13.1626 8.44262C13.1562 8.19491 13.2001 7.94849 13.2917 7.71825C13.3833 7.48801 13.5207 7.27875 13.6955 7.10312ZM7.40124 14.636H17.7716V18.0928H7.40124V14.636ZM9.70576 21.5496H17.7716V29.6155H9.70576V21.5496ZM21.2284 29.6155V21.5496H29.2942V29.6155H21.2284Z" fill="#9ED0E0"/>
</svg>
