<svg width="39" height="38" viewBox="0 0 39 38" fill="none" xmlns="http://www.w3.org/2000/svg">
<path d="M19.5001 23.6445C22.2492 23.6445 24.4779 21.4159 24.4779 18.6667C24.4779 15.9176 22.2492 13.689 19.5001 13.689C16.7509 13.689 14.5223 15.9176 14.5223 18.6667C14.5223 21.4159 16.7509 23.6445 19.5001 23.6445Z" fill="#9ED0E0"/>
<path d="M14.8333 3.11108L11.9867 6.2222H7.05556C5.34445 6.2222 3.94445 7.6222 3.94445 9.33331V28C3.94445 29.7111 5.34445 31.1111 7.05556 31.1111H31.9444C33.6556 31.1111 35.0556 29.7111 35.0556 28V9.33331C35.0556 7.6222 33.6556 6.2222 31.9444 6.2222H27.0133L24.1667 3.11108H14.8333ZM19.5 26.4444C15.2067 26.4444 11.7222 22.96 11.7222 18.6666C11.7222 14.3733 15.2067 10.8889 19.5 10.8889C23.7933 10.8889 27.2778 14.3733 27.2778 18.6666C27.2778 22.96 23.7933 26.4444 19.5 26.4444Z" fill="#9ED0E0"/>
</svg>
