<svg width="39" height="38" viewBox="0 0 39 38" fill="none" xmlns="http://www.w3.org/2000/svg">
<path d="M28.8336 18.6666C28.8336 19.5222 29.5336 20.2222 30.3891 20.2222H33.5002C34.3558 20.2222 35.0558 19.5222 35.0558 18.6666C35.0558 17.8111 34.3558 17.1111 33.5002 17.1111H30.3891C29.5336 17.1111 28.8336 17.8111 28.8336 18.6666ZM26.6402 26.1644C26.5181 26.3237 26.4291 26.5059 26.3786 26.7002C26.328 26.8945 26.3169 27.097 26.3459 27.2956C26.3749 27.4943 26.4434 27.6851 26.5474 27.8569C26.6514 28.0286 26.7887 28.1777 26.9513 28.2955C27.7758 28.9022 28.6469 29.5555 29.4713 30.1777C30.1558 30.6911 31.1202 30.5511 31.618 29.8666C31.618 29.8511 31.6336 29.8511 31.6336 29.8355C31.7557 29.6748 31.8446 29.4913 31.8951 29.2958C31.9456 29.1004 31.9567 28.8968 31.9278 28.697C31.8988 28.4972 31.8304 28.3052 31.7264 28.1321C31.6225 27.959 31.4852 27.8083 31.3224 27.6888C30.498 27.0666 29.6269 26.4133 28.818 25.8066C28.6547 25.6859 28.4691 25.5986 28.272 25.5496C28.0748 25.5007 27.87 25.4911 27.6691 25.5215C27.4683 25.5518 27.2754 25.6215 27.1015 25.7265C26.9276 25.8315 26.7762 25.9697 26.6558 26.1333C26.6558 26.1488 26.6402 26.1644 26.6402 26.1644ZM31.6491 7.48218C31.6491 7.46663 31.6336 7.46663 31.6336 7.45107C31.5138 7.28867 31.363 7.15166 31.1899 7.04798C31.0168 6.94429 30.8249 6.876 30.6252 6.84706C30.4255 6.81812 30.2221 6.82911 30.0267 6.87939C29.8313 6.92967 29.6478 7.01824 29.4869 7.13996C28.6624 7.76218 27.7758 8.41552 26.9669 9.03774C26.2824 9.55107 26.158 10.5155 26.6713 11.1844C26.6713 11.2 26.6869 11.2 26.6869 11.2155C27.2002 11.9 28.1491 12.04 28.8336 11.5266C29.658 10.92 30.5291 10.2511 31.3536 9.62885C32.0224 9.13107 32.1469 8.16663 31.6491 7.48218ZM13.278 14H7.05578C5.34466 14 3.94466 15.4 3.94466 17.1111V20.2222C3.94466 21.9333 5.34466 23.3333 7.05578 23.3333H8.61133V28C8.61133 28.8555 9.31133 29.5555 10.1669 29.5555C11.0224 29.5555 11.7224 28.8555 11.7224 28V23.3333H13.278L21.0558 28V9.3333L13.278 14ZM24.9447 18.6666C24.9447 16.5977 24.0424 14.7311 22.6113 13.4555V23.8622C24.0424 22.6022 24.9447 20.7355 24.9447 18.6666Z" fill="#9ED0E0"/>
</svg>
