<svg width="876" height="48" viewBox="0 0 876 48" fill="none" xmlns="http://www.w3.org/2000/svg">
<path d="M68.0708 7.00284C79.2771 -1.00095 90.4833 -1.00095 101.69 7.00284C112.896 15.0066 124.102 15.0066 135.308 7.00284C146.515 -1.00095 157.721 -1.00095 168.927 7.00284C180.133 15.0066 191.34 15.0066 202.546 7.00284C213.752 -1.00095 224.959 -1.00095 236.165 7.00284C247.371 15.0066 258.577 15.0066 269.784 7.00284C280.99 -1.00095 292.196 -1.00095 303.402 7.00284C314.609 15.0066 325.815 15.0066 337.021 7.00284C348.227 -1.00095 359.434 -1.00095 370.64 7.00284C381.846 15.0066 393.053 15.0066 404.259 7.00284C415.465 -1.00095 426.671 -1.00095 437.878 7.00284C449.084 15.0066 460.29 15.0066 471.496 7.00284C482.703 -1.00095 493.909 -1.00095 505.115 7.00284C516.321 15.0066 527.528 15.0066 538.734 7.00284C549.94 -1.00095 561.146 -1.00095 572.353 7.00284C583.559 15.0066 594.765 15.0066 605.972 7.00284C617.178 -1.00095 628.384 -1.00095 639.59 7.00284C650.797 15.0066 662.003 15.0066 673.209 7.00284C684.415 -1.00095 695.622 -1.00095 706.828 7.00284C718.034 15.0066 729.24 15.0066 740.447 7.00284C751.653 -1.00095 762.859 -1.00095 774.066 7.00284C785.272 15.0066 796.478 15.0066 807.684 7.00284C818.891 -1.00095 830.097 -1.00095 841.303 7.00284C852.509 15.0066 863.716 15.0066 874.922 7.00284" stroke="#CCE1E4" stroke-width="2" stroke-linecap="round"/>
<path d="M1 40.0185C12.2063 32.0147 23.4125 32.0147 34.6188 40.0185C45.8251 48.0223 57.0313 48.0223 68.2376 40.0185C79.4439 32.0147 90.6501 32.0147 101.856 40.0185C113.063 48.0223 124.269 48.0223 135.475 40.0185C146.681 32.0147 157.888 32.0147 169.094 40.0185C180.3 48.0223 191.507 48.0223 202.713 40.0185C213.919 32.0147 225.125 32.0147 236.332 40.0185C247.538 48.0223 258.744 48.0223 269.95 40.0185C281.157 32.0147 292.363 32.0147 303.569 40.0185C314.775 48.0223 325.982 48.0223 337.188 40.0185C348.394 32.0147 359.601 32.0147 370.807 40.0185C382.013 48.0223 393.219 48.0223 404.426 40.0185C415.632 32.0147 426.838 32.0147 438.044 40.0185C449.251 48.0223 460.457 48.0223 471.663 40.0185C482.869 32.0147 494.076 32.0147 505.282 40.0185C516.488 48.0223 527.694 48.0223 538.901 40.0185C550.107 32.0147 561.313 32.0147 572.52 40.0185C583.726 48.0223 594.932 48.0223 606.138 40.0185C617.345 32.0147 628.551 32.0147 639.757 40.0185C650.963 48.0223 662.17 48.0223 673.376 40.0185C684.582 32.0147 695.788 32.0147 706.995 40.0185C718.201 48.0223 729.407 48.0223 740.614 40.0185C751.82 32.0147 763.026 32.0147 774.232 40.0185C785.439 48.0223 796.645 48.0223 807.851 40.0185" stroke="#CCE1E4" stroke-width="2" stroke-linecap="round"/>
</svg>
