<svg width="54" height="120" viewBox="0 0 54 120" fill="none" xmlns="http://www.w3.org/2000/svg">
<path d="M39.1449 6.18335C40.3921 6.64989 41.8902 5.66914 42.4907 3.99363C43.0907 2.31812 42.5666 0.582016 41.3193 0.115877C40.0717 -0.349857 38.574 0.630084 37.9736 2.306C37.3735 3.98151 37.8976 5.71761 39.1453 6.18335H39.1449Z" fill="#CCE1E4"/>
<path d="M34.405 8.85585C35.71 8.74032 36.6471 7.22638 36.4988 5.47291C36.3501 3.72025 35.172 2.39293 33.867 2.50764C32.5624 2.62357 31.6253 4.13791 31.7736 5.89098C31.9224 7.64364 33.1004 8.97097 34.405 8.85585Z" fill="#CCE1E4"/>
<path d="M44.5673 8.79637C45.7125 9.48386 47.3581 8.79354 48.2434 7.25537C49.1283 5.71598 48.9175 3.91242 47.7719 3.22533C46.6267 2.53865 44.9807 3.22937 44.0958 4.76755C43.2109 6.30653 43.4221 8.11009 44.5673 8.79677V8.79637Z" fill="#CCE1E4"/>
<path d="M50.7011 10.6198C49.9586 9.51825 48.2062 9.43302 46.7869 10.4303C45.3672 11.428 44.8185 13.1294 45.5606 14.2313C46.3031 15.3329 48.0555 15.4181 49.4748 14.4208C50.8942 13.4235 51.4432 11.7221 50.7011 10.6202V10.6198Z" fill="#CCE1E4"/>
<path d="M43.0764 10.8278C42.9348 9.8273 42.3339 8.91441 41.3739 8.45191C40.4138 7.9894 39.3418 8.09604 38.4956 8.62035C37.5601 9.19999 36.962 9.95736 36.1562 10.2882C35.3508 10.619 33.0944 9.63341 31.6897 12.2384C30.6976 14.0783 31.6082 16.4041 33.4683 17.3005C34.882 17.9815 36.0007 17.9055 36.8224 18.301C37.6436 18.6964 38.2975 19.6271 39.7113 20.3081C41.5713 21.2045 43.9083 20.4439 44.6686 18.4921C45.745 15.7288 43.565 14.5771 43.3031 13.7317C43.0412 12.8867 43.2335 11.9334 43.0768 10.8278H43.0764Z" fill="#CCE1E4"/>
<path d="M42.0002 39.6101C43.2475 40.0766 44.7455 39.0959 45.346 37.4204C45.9461 35.7449 45.422 34.0088 44.1747 33.5426C42.927 33.0769 41.4294 34.0568 40.8289 35.7328C40.2288 37.4083 40.7529 39.1444 42.0006 39.6101H42.0002Z" fill="#CCE1E4"/>
<path d="M37.2603 42.2826C38.5654 42.1671 39.5025 40.6531 39.3541 38.8997C39.2054 37.147 38.0274 35.8197 36.7224 35.9344C35.4177 36.0503 34.4806 37.5647 34.629 39.3177C34.7777 41.0704 35.9557 42.3977 37.2603 42.2826Z" fill="#CCE1E4"/>
<path d="M47.4227 42.2231C48.5679 42.9106 50.2135 42.2203 51.0988 40.6821C51.9837 39.1427 51.7728 37.3392 50.6272 36.6521C49.482 35.9654 47.836 36.6561 46.9511 38.1943C46.0662 39.7333 46.2775 41.5368 47.4227 42.2235V42.2231Z" fill="#CCE1E4"/>
<path d="M53.5565 44.0465C52.814 42.945 51.0616 42.8598 49.6422 43.8571C48.2225 44.8548 47.6738 46.5562 48.4159 47.6581C49.1584 48.7596 50.9109 48.8448 52.3302 47.8475C53.7495 46.8502 54.2986 45.1489 53.5565 44.0469V44.0465Z" fill="#CCE1E4"/>
<path d="M45.9318 44.2546C45.7902 43.2541 45.1893 42.3412 44.2292 41.8787C43.2692 41.4162 42.1971 41.5228 41.351 42.0471C40.4155 42.6267 39.8173 43.3841 39.0115 43.7149C38.2062 44.0458 35.9498 43.0602 34.5451 45.6651C33.553 47.505 34.4636 49.8309 36.3236 50.7272C37.7374 51.4082 38.8561 51.3323 39.6777 51.7278C40.4989 52.1232 41.1528 53.0539 42.5666 53.7349C44.4266 54.6312 46.7637 53.8706 47.524 51.9188C48.6003 49.1555 46.4203 48.0039 46.1584 47.1585C45.8966 46.3134 46.0888 45.3602 45.9322 44.2546H45.9318Z" fill="#CCE1E4"/>
<path d="M7.97506 72.0752C9.22232 72.5417 10.7204 71.561 11.3209 69.8855C11.9209 68.21 11.3968 66.4739 10.1495 66.0077C8.9019 65.542 7.40424 66.5219 6.80375 68.1978C6.20366 69.8734 6.7278 71.6095 7.97545 72.0752H7.97506Z" fill="#CCE1E4"/>
<path d="M3.2352 74.7477C4.54021 74.6322 5.47734 73.1182 5.32899 71.3648C5.18026 69.6121 4.00223 68.2848 2.69722 68.3995C1.3926 68.5154 0.455479 70.0298 0.603821 71.7828C0.752558 73.5355 1.93059 74.8628 3.2352 74.7477Z" fill="#CCE1E4"/>
<path d="M13.3975 74.6882C14.5427 75.3757 16.1883 74.6854 17.0736 73.1472C17.9585 71.6078 17.7477 69.8043 16.6021 69.1172C15.4569 68.4305 13.8109 69.1212 12.926 70.6594C12.0411 72.1984 12.2523 74.0019 13.3975 74.6886V74.6882Z" fill="#CCE1E4"/>
<path d="M19.5313 76.5116C18.7888 75.4101 17.0364 75.3249 15.6171 76.3222C14.1974 77.3199 13.6487 79.0213 14.3908 80.1232C15.1333 81.2247 16.8857 81.3099 18.305 80.3126C19.7244 79.3153 20.2734 77.6139 19.5313 76.512V76.5116Z" fill="#CCE1E4"/>
<path d="M11.9066 76.7197C11.765 75.7191 11.1641 74.8063 10.2041 74.3438C9.244 73.8812 8.17199 73.9879 7.32585 74.5122C6.39031 75.0918 5.79219 75.8492 4.9864 76.18C4.18101 76.5109 1.92463 75.5253 0.519937 78.1302C-0.472171 79.9701 0.438448 82.296 2.29845 83.1923C3.71225 83.8733 4.83094 83.7974 5.65255 84.1928C6.47377 84.5883 7.12766 85.519 8.54146 86.2C10.4015 87.0963 12.7385 86.3357 13.4988 84.3839C14.5752 81.6206 12.3952 80.469 12.1333 79.6236C11.8714 78.7785 12.0637 77.8252 11.907 76.7197H11.9066Z" fill="#CCE1E4"/>
<path d="M10.8304 105.502C12.0777 105.968 13.5757 104.988 14.1762 103.312C14.7763 101.637 14.2522 99.9006 13.0049 99.4345C11.7572 98.9687 10.2596 99.9487 9.6591 101.625C9.05901 103.3 9.58315 105.036 10.8308 105.502H10.8304Z" fill="#CCE1E4"/>
<path d="M6.09055 108.174C7.39556 108.059 8.33268 106.545 8.18434 104.792C8.0356 103.039 6.85757 101.712 5.55256 101.826C4.24795 101.942 3.31083 103.457 3.45917 105.21C3.6079 106.962 4.78593 108.29 6.09055 108.174Z" fill="#CCE1E4"/>
<path d="M16.2529 108.115C17.3981 108.802 19.0437 108.112 19.929 106.574C20.8139 105.035 20.603 103.231 19.4574 102.544C18.3122 101.857 16.6662 102.548 15.7813 104.086C14.8964 105.625 15.1077 107.429 16.2529 108.115V108.115Z" fill="#CCE1E4"/>
<path d="M22.3867 109.938C21.6442 108.837 19.8918 108.752 18.4724 109.749C17.0527 110.747 16.504 112.448 17.2461 113.55C17.9886 114.651 19.741 114.737 21.1604 113.739C22.5797 112.742 23.1288 111.041 22.3867 109.939V109.938Z" fill="#CCE1E4"/>
<path d="M14.762 110.146C14.6204 109.146 14.0195 108.233 13.0594 107.771C12.0994 107.308 11.0273 107.415 10.1812 107.939C9.24565 108.519 8.64754 109.276 7.84175 109.607C7.03635 109.938 4.77998 108.952 3.37528 111.557C2.38318 113.397 3.29379 115.723 5.1538 116.619C6.56759 117.3 7.68629 117.224 8.5079 117.62C9.32912 118.015 9.98301 118.946 11.3968 119.627C13.2568 120.523 15.5939 119.762 16.3542 117.811C17.4305 115.047 15.2505 113.896 14.9886 113.05C14.7268 112.205 14.919 111.252 14.7624 110.146H14.762Z" fill="#CCE1E4"/>
</svg>
