<svg width="48" height="49" viewBox="0 0 48 49" fill="none" xmlns="http://www.w3.org/2000/svg">
<path d="M21.4995 2.32742C22.9624 1.16082 25.0376 1.16082 26.5005 2.32742C27.5166 3.13773 28.8623 3.40542 30.1112 3.04564C31.9091 2.52766 33.8264 3.3218 34.7314 4.95942C35.3601 6.09689 36.501 6.8592 37.7925 7.00471C39.6518 7.21422 41.1192 8.6816 41.3287 10.5409C41.4742 11.8324 42.2365 12.9733 43.374 13.6019C45.0116 14.507 45.8057 16.4242 45.2877 18.2222C44.928 19.471 45.1956 20.8168 46.006 21.8329C47.1726 23.2958 47.1726 25.371 46.006 26.8338C45.1956 27.8499 44.928 29.1957 45.2877 30.4445C45.8057 32.2425 45.0116 34.1597 43.374 35.0648C42.2365 35.6935 41.4742 36.8344 41.3287 38.1258C41.1192 39.9851 39.6518 41.4525 37.7925 41.662C36.501 41.8076 35.3601 42.5699 34.7314 43.7073C33.8264 45.345 31.9091 46.1391 30.1112 45.6211C28.8623 45.2613 27.5166 45.529 26.5005 46.3393C25.0376 47.5059 22.9624 47.5059 21.4995 46.3393C20.4834 45.529 19.1377 45.2613 17.8888 45.6211C16.0909 46.1391 14.1736 45.3449 13.2685 43.7073C12.6399 42.5699 11.499 41.8076 10.2075 41.662C8.34822 41.4525 6.88084 39.9851 6.67134 38.1258C6.52582 36.8344 5.76351 35.6935 4.62604 35.0648C2.98843 34.1597 2.19428 32.2425 2.71226 30.4445C3.07204 29.1957 2.80436 27.8499 1.99405 26.8338C0.827449 25.371 0.827449 23.2958 1.99405 21.8329C2.80436 20.8168 3.07204 19.471 2.71226 18.2222C2.19428 16.4242 2.98843 14.507 4.62604 13.6019C5.76351 12.9733 6.52582 11.8324 6.67134 10.5409C6.88084 8.6816 8.34822 7.21422 10.2075 7.00471C11.499 6.8592 12.6399 6.09689 13.2685 4.95942C14.1736 3.3218 16.0909 2.52766 17.8888 3.04564C19.1377 3.40542 20.4834 3.13773 21.4995 2.32742Z" fill="#CE2073"/>
<path d="M19.8746 9.25658H23.5763V10.0937H19.8746V9.25658ZM19.4138 10.7465H23.9142V11.599H19.4138V10.7465ZM19.5827 12.2902H23.8374V13.1427H19.5827V12.2902ZM21.2416 8.56538H22.1555V11.215H21.2416V8.56538ZM22.1555 11.5068H23.0694V14.7555C23.0694 15.2239 22.9773 15.4774 22.6701 15.6156C22.3629 15.7539 21.9251 15.7769 21.3414 15.7769C21.3107 15.5081 21.1878 15.1164 21.065 14.863C21.4413 14.8783 21.8637 14.8783 21.9942 14.8707C22.1171 14.8707 22.1555 14.8476 22.1555 14.7401V11.5068ZM19.8515 13.5574L20.535 13.135C20.873 13.4729 21.28 13.9567 21.4643 14.2947L20.7347 14.7708C20.5734 14.4329 20.1818 13.926 19.8515 13.5574ZM16.6797 12.6665C17.4323 12.4975 18.5536 12.1827 19.6134 11.8831L19.7363 12.6895C18.7686 12.9967 17.7165 13.3116 16.9024 13.5497L16.6797 12.6665ZM18.0621 8.57306H18.9069V15.7846H18.0621V8.57306ZM17.0483 8.97242L17.8163 9.10298C17.7165 10.1167 17.5322 11.1843 17.2557 11.8755C17.1174 11.7603 16.7872 11.5529 16.6029 11.4607C16.8486 10.8387 16.9792 9.87866 17.0483 8.97242ZM17.2557 10.0246H19.5443V10.9001H17.0867L17.2557 10.0246ZM28.5146 14.5174L29.175 13.9183C29.9814 14.2947 30.9184 14.7939 31.4406 15.1395L30.5958 15.7539C30.1197 15.4083 29.2826 14.8937 28.5146 14.5174ZM24.3981 13.1427H31.5942V14.0105H24.3981V13.1427ZM25.6115 11.2687H30.3347V12.1212H25.6115V11.2687ZM26.7558 8.55002H27.616V13.5267H26.7558V8.55002ZM28.3533 8.54234H29.2288V13.5267H28.3533V8.54234ZM25.1584 9.45626H30.8954V13.4575H29.9661V10.3087H26.0493V13.4575H25.1584V9.45626ZM26.6637 13.926L27.5085 14.4867C26.9018 14.9628 25.9187 15.4851 25.1277 15.7769C24.951 15.5849 24.6285 15.2854 24.4058 15.1087C25.2198 14.8476 26.1875 14.3331 26.6637 13.926Z" fill="white"/>
<path d="M21.352 21.4178H25.937V36.6934H22.5731V24.6434H21.352V21.4178Z" fill="white"/>
</svg>
